{"title":"The Hunger Games Catching Fire 2013 CAM H264 MP3 AVi MURDER ","uid":9244411,"size":867957718,"categoryP":"video","categoryS":"movies","magnet":"?xt=urn:btih:9351036fc5882b20830470dfa48ff15aa9e9e71a&amp;dn=The+Hunger+Games+Catching+Fire+2013+CAM+H264+MP3+AVi+MURDER+&amp;tr=udp%3A%2F%2Ftracker.openbittorrent.com%3A80&amp;tr=udp%3A%2F%2Fopen.demonii.com%3A1337&amp;tr=udp%3A%2F%2Ftracker.coppersurfer.tk%3A6969&amp;tr=udp%3A%2F%2Fexodus.desync.com%3A6969","seeders":1,"leechers":0,"uploader":".BONE.","files":2,"time":1385348854,"description":"Katniss Everdeen and Peeta Mellark become targets of the Capitol after their victory in the 74th Hunger Games sparks a rebellion in the Districts of Panem. \n\nGeneral\nComplete name                            : Hunger Games Catching Fire 2013 CAM H264 MP3 AVi MURDER\nFormat                                   : AVI\nFormat/Info                              : Audio Video Interleave\nFile size                                : 828 MiB\nDuration                                 : 2h 15mn\nOverall bit rate                         : 853 Kbps\nWriting library                          : Lavf53.24.2\n\nVideo\nID                                       : 0\nFormat                                   : AVC\nFormat/Info                              : Advanced Video Codec\nFormat profile                           : &lt;a class=&quot;__cf_email__&quot; href=&quot;/cdn-cgi/l/email-protection&quot; data-cfemail=&quot;d795b6a4b2bbbeb9b2979be5f9e6&quot;&gt;[email&amp;#160;protected]&lt;/a&gt;&lt;script cf-hash='f9e31' type=&quot;text/javascript&quot;&gt;\n/* &lt;![CDATA[ */!function(){try{var t=&quot;currentScript&quot;in document?document.currentScript:function(){for(var t=document.getElementsByTagName(&quot;script&quot;),e=t.length;e--;)if(t[e].getAttribute(&quot;cf-hash&quot;))return t[e]}();if(t&amp;&amp;t.previousSibling){var e,r,n,i,c=t.previousSibling,a=c.getAttribute(&quot;data-cfemail&quot;);if(a){for(e=&quot;&quot;,r=parseInt(a.substr(0,2),16),n=2;a.length-n;n+=2)i=parseInt(a.substr(n,2),16)^r,e+=String.fromCharCode(i);e=document.createTextNode(e),c.parentNode.replaceChild(e,c)}}}catch(u){}}();/* ]]&gt; */&lt;/script&gt;\nFormat settings, CABAC                   : No\nFormat settings, ReFrames                : 1 frame\nCodec ID                                 : H264\nDuration                                 : 2h 15mn\nBit rate                                 : 650 Kbps\nWidth                                    : 640 pixels\nHeight                                   : 256 pixels\nDisplay aspect ratio                     : 2.500\nFrame rate mode                          : Variable\nFrame rate                               : 25.000 fps\nColor space                              : YUV\nChroma subsampling                       : 4:2:0\nBit depth                                : 8 bits\nScan type                                : Progressive\nBits/(Pixel*Frame)                       : 0.159\nStream size                              : 629 MiB (76%)\nWriting library                          : x264 core\n\nAudio\nID                                       : 1\nFormat                                   : MPEG Audio\nFormat version                           : Version 1\nFormat profile                           : Layer 3\nMode                                     : Joint stereo\nMode extension                           : MS Stereo\nCodec ID                                 : 55\nCodec ID/Hint                            : MP3\nDuration                                 : 2h 15mn\nBit rate mode                            : Constant\nBit rate                                 : 192 Kbps\nChannel count                            : 2 channels\nSampling rate                            : 44.1 KHz\nCompression mode                         : Lossy\nStream size                              : 186 MiB (23%)\nAlignment                                : Aligned on interleaves\nInterleave, duration                     : 26 ms (0.65 video frame)\nWriting library                          : LAME3.98.4","torrent":{"xt":"urn:btih:9351036fc5882b20830470dfa48ff15aa9e9e71a","amp;dn":"The+Hunger+Games+Catching+Fire+2013+CAM+H264+MP3+AVi+MURDER+","amp;tr":["udp%3A%2F%2Ftracker.openbittorrent.com%3A80","udp%3A%2F%2Fopen.demonii.com%3A1337","udp%3A%2F%2Ftracker.coppersurfer.tk%3A6969","udp%3A%2F%2Fexodus.desync.com%3A6969"],"infoHash":"9351036fc5882b20830470dfa48ff15aa9e9e71a","infoHashBuffer":{"type":"Buffer","data":[147,81,3,111,197,136,43,32,131,4,112,223,164,143,241,90,169,233,231,26]},"announce":[],"urlList":[]}}